<svg xmlns="http://www.w3.org/2000/svg" width="1280" height="640" viewBox="0 0 1280 640" role="img" aria-labelledby="title description">
  <title id="title">MicDeck</title>
  <desc id="description">Soundboard, system audio, one virtual microphone.</desc>
  <defs>
    <linearGradient id="background" x1="0" y1="0" x2="1" y2="1">
      <stop offset="0" stop-color="#11151a"/>
      <stop offset=".48" stop-color="#090b0e"/>
      <stop offset="1" stop-color="#0d1013"/>
    </linearGradient>
    <radialGradient id="glow" cx="0" cy="0" r="1" gradientTransform="translate(260 110) rotate(36) scale(520 360)">
      <stop stop-color="#c8ff63" stop-opacity=".18"/>
      <stop offset="1" stop-color="#c8ff63" stop-opacity="0"/>
    </radialGradient>
    <linearGradient id="lime" x1="0" y1="0" x2="1" y2="1">
      <stop stop-color="#ddff91"/>
      <stop offset="1" stop-color="#a8e838"/>
    </linearGradient>
    <filter id="shadow" x="-30%" y="-30%" width="160%" height="180%">
      <feDropShadow dx="0" dy="28" stdDeviation="30" flood-color="#000" flood-opacity=".52"/>
    </filter>
    <filter id="softGlow" x="-50%" y="-50%" width="200%" height="200%">
      <feGaussianBlur stdDeviation="22"/>
    </filter>
    <clipPath id="panelClip">
      <rect x="744" y="70" width="472" height="500" rx="30"/>
    </clipPath>
  </defs>

  <rect width="1280" height="640" rx="24" fill="url(#background)"/>
  <rect width="1280" height="640" rx="24" fill="url(#glow)"/>
  <path d="M0 560C250 470 420 650 700 535s380-60 580-20v125H0Z" fill="#c8ff63" opacity=".025"/>
  <g opacity=".12" stroke="#7d878f" stroke-width="1">
    <path d="M0 80h1280M0 160h1280M0 240h1280M0 320h1280M0 400h1280M0 480h1280M0 560h1280"/>
    <path d="M80 0v640M160 0v640M240 0v640M320 0v640M400 0v640M480 0v640M560 0v640M640 0v640M720 0v640M800 0v640M880 0v640M960 0v640M1040 0v640M1120 0v640M1200 0v640"/>
  </g>

  <g transform="translate(72 58)">
    <rect width="58" height="58" rx="16" fill="#c8ff63"/>
    <path d="M13 44V14h8l8 12 8-12h8v30h-8V27L29 41 21 27v17Z" fill="#0b0d10"/>
    <text x="76" y="24" fill="#f5f7f8" font-family="Inter,Segoe UI,Arial,sans-serif" font-size="24" font-weight="800" letter-spacing="4">MICDECK</text>
    <text x="77" y="48" fill="#818b92" font-family="Inter,Segoe UI,Arial,sans-serif" font-size="12" font-weight="600" letter-spacing="2.5">WINDOWS AUDIO CONTROL</text>
  </g>

  <g transform="translate(72 188)">
    <text fill="#f7f9fa" font-family="Inter,Segoe UI,Arial,sans-serif" font-size="66" font-weight="780" letter-spacing="-2">
      <tspan x="0" y="0">Soundboard.</tspan>
      <tspan x="0" y="76">System audio.</tspan>
      <tspan x="0" y="152" fill="url(#lime)">One virtual mic.</tspan>
    </text>
    <text x="2" y="210" fill="#9aa3a9" font-family="Inter,Segoe UI,Arial,sans-serif" font-size="20" font-weight="450">
      Native Rust + C++ routing for Discord, games and voice chat.
    </text>
  </g>

  <g transform="translate(72 545)">
    <g>
      <rect width="106" height="34" rx="17" fill="#151a1f" stroke="#30383f"/>
      <circle cx="19" cy="17" r="4" fill="#c8ff63"/>
      <text x="32" y="22" fill="#ccd2d6" font-family="Inter,Segoe UI,Arial,sans-serif" font-size="12" font-weight="650">LOCAL-FIRST</text>
    </g>
    <g transform="translate(120)">
      <rect width="116" height="34" rx="17" fill="#151a1f" stroke="#30383f"/>
      <text x="17" y="22" fill="#ccd2d6" font-family="Inter,Segoe UI,Arial,sans-serif" font-size="12" font-weight="650">LOW LATENCY</text>
    </g>
    <g transform="translate(250)">
      <rect width="137" height="34" rx="17" fill="#151a1f" stroke="#30383f"/>
      <text x="17" y="22" fill="#ccd2d6" font-family="Inter,Segoe UI,Arial,sans-serif" font-size="12" font-weight="650">WINDOWS 10 / 11</text>
    </g>
  </g>

  <circle cx="1040" cy="130" r="90" fill="#c8ff63" opacity=".08" filter="url(#softGlow)"/>
  <g filter="url(#shadow)">
    <rect x="744" y="70" width="472" height="500" rx="30" fill="#11151a" stroke="#2c343a" stroke-width="2"/>
    <g clip-path="url(#panelClip)">
      <rect x="744" y="70" width="104" height="500" fill="#0b0e11"/>
      <rect x="766" y="94" width="42" height="42" rx="12" fill="#c8ff63"/>
      <path d="M775 127V103h6l6 9 6-9h6v24h-6v-13l-6 10-6-10v13Z" fill="#0b0e11"/>

      <rect x="762" y="173" width="68" height="50" rx="12" fill="#1a211b" stroke="#324823"/>
      <rect x="774" y="188" width="18" height="18" rx="5" fill="#c8ff63" opacity=".9"/>
      <path d="M778 201v-8l8 4Z" fill="#10130f"/>
      <rect x="762" y="237" width="68" height="50" rx="12" fill="#12161a"/>
      <rect x="774" y="252" width="18" height="18" rx="5" fill="#293038"/>
      <path d="M779 257h8v8h-8Z" fill="#77818a"/>
      <rect x="762" y="301" width="68" height="50" rx="12" fill="#12161a"/>
      <circle cx="783" cy="326" r="9" fill="#293038"/>

      <text x="876" y="117" fill="#7f8990" font-family="Inter,Segoe UI,Arial,sans-serif" font-size="10" font-weight="700" letter-spacing="2">LIVE STUDIO</text>
      <text x="876" y="149" fill="#f4f6f7" font-family="Inter,Segoe UI,Arial,sans-serif" font-size="24" font-weight="750">Your audio route</text>

      <rect x="876" y="176" width="310" height="112" rx="18" fill="#171c21" stroke="#30383f"/>
      <text x="896" y="202" fill="#8e989f" font-family="Inter,Segoe UI,Arial,sans-serif" font-size="10" font-weight="700" letter-spacing="1.6">SOURCES</text>
      <g transform="translate(896 220)">
        <rect width="270" height="7" rx="3.5" fill="#292f34"/>
        <rect width="187" height="7" rx="3.5" fill="url(#lime)"/>
        <circle cx="187" cy="3.5" r="7" fill="#e4ffae"/>
      </g>
      <text x="896" y="260" fill="#dce1e4" font-family="Inter,Segoe UI,Arial,sans-serif" font-size="13" font-weight="650">Microphone + desktop + pads</text>

      <rect x="876" y="306" width="148" height="100" rx="18" fill="#171c21" stroke="#30383f"/>
      <text x="894" y="330" fill="#8e989f" font-family="Inter,Segoe UI,Arial,sans-serif" font-size="10" font-weight="700" letter-spacing="1.5">LATENCY</text>
      <text x="894" y="370" fill="#f4f6f7" font-family="Inter,Segoe UI,Arial,sans-serif" font-size="28" font-weight="760">12.4</text>
      <text x="959" y="370" fill="#7f8990" font-family="Inter,Segoe UI,Arial,sans-serif" font-size="12" font-weight="650">ms</text>
      <text x="894" y="391" fill="#a9ed4b" font-family="Inter,Segoe UI,Arial,sans-serif" font-size="10" font-weight="700">STABLE</text>

      <rect x="1038" y="306" width="148" height="100" rx="18" fill="#171c21" stroke="#30383f"/>
      <text x="1056" y="330" fill="#8e989f" font-family="Inter,Segoe UI,Arial,sans-serif" font-size="10" font-weight="700" letter-spacing="1.5">OUTPUT</text>
      <text x="1056" y="360" fill="#f4f6f7" font-family="Inter,Segoe UI,Arial,sans-serif" font-size="14" font-weight="700">Virtual mic</text>
      <circle cx="1062" cy="385" r="4" fill="#c8ff63"/>
      <text x="1074" y="389" fill="#aeb6bb" font-family="Inter,Segoe UI,Arial,sans-serif" font-size="11" font-weight="600">Broadcasting</text>

      <rect x="876" y="424" width="310" height="88" rx="18" fill="#c8ff63"/>
      <circle cx="906" cy="468" r="14" fill="#0c0f11" opacity=".14"/>
      <path d="M901 468h10m-5-5v10" stroke="#0c0f11" stroke-width="2.2" stroke-linecap="round"/>
      <text x="934" y="462" fill="#0d100e" font-family="Inter,Segoe UI,Arial,sans-serif" font-size="11" font-weight="750" letter-spacing="1.3">SYSTEM AUDIO</text>
      <text x="934" y="484" fill="#0d100e" font-family="Inter,Segoe UI,Arial,sans-serif" font-size="16" font-weight="780">Sharing is on</text>
      <rect x="1132" y="450" width="36" height="36" rx="18" fill="#0c0f11"/>
      <path d="m1144 468 7 6 8-12" fill="none" stroke="#c8ff63" stroke-width="2.5" stroke-linecap="round" stroke-linejoin="round"/>
    </g>
  </g>

  <rect x="1" y="1" width="1278" height="638" rx="23" fill="none" stroke="#394149" opacity=".75"/>
</svg>
